# xmcd
#
# Track frame offsets:
#	150
#	13200
#	25137
#	38914
#	49162
#	61520
#	73152
#	83272
#	93620
#	106900
#	116454
#	129442
#	142007
#	150612
#	164390
#	174232
#	183852
#	193159
#	204745
#	215215
#	227565
#	240032
#	248530
#	256432
#	266017
#	277845
#	290160
#	302390
#	313085
#
# Disc length: 4294
#
# Revision: 2
# Processed by: cddbd v1.5.1PL0 Copyright (c) Steve Scherf et al.
# Submitted via: audiograbber 1.82.02
# Normalized: r1:DSETVAR1
#
DISCID=9010c41d
DTITLE=Various Artist - Windy City Doo Wop To Soul
DYEAR=1900
DGENRE=
TTITLE0=Dream Kings - M T Y L T T(alt)
TTITLE1=Dream Kings - Oh What A Baby(alt)
TTITLE2=Strollers - False Love
TTITLE3=Strollers - Baby Sweets
TTITLE4=Medallionaires - Magic Moonlight(alt)
TTITLE5=Medallionaires - Darling Don't(alt)
TTITLE6=Uniques - Restless Nights
TTITLE7=Uniques - Sad Chick
TTITLE8=Nobles - Serenade(alt)
TTITLE9=Nobles - You Ain't Right(alt)
TTITLE10=Populairs - Wandering Lover
TTITLE11=Populairs - Special Kind Of Love
TTITLE12=Upsetters - I Need You
TTITLE13=Delprados - Boy Meets Girl
TTITLE14=Sheppards - Can't Take It
TTITLE15=Springers - Red Sails In The Sunset
TTITLE16=Springers - Every Day Of The Week
TTITLE17=Unknown Group - Walk Right Up
TTITLE18=Unknown Group - My Baby's Gone
TTITLE19=Vondells - Dear Lord
TTITLE20=Newports - Not For A Penny
TTITLE21=Tides - Heartbeat
TTITLE22=Shel-Raes - I Love That Guy
TTITLE23=Shel-Raes - That Boy
TTITLE24=Unknown Group - Sometimes Baby
TTITLE25=Unknown Group - One Woman's Man
TTITLE26=Gifts (Henry Ford and the) - Too Late
TTITLE27=Condors - Let Me Down Easy
TTITLE28=Condors - Meet Me Halfway
EXTD=
EXTT0=
EXTT1=
EXTT2=
EXTT3=
EXTT4=
EXTT5=
EXTT6=
EXTT7=
EXTT8=
EXTT9=
EXTT10=
EXTT11=
EXTT12=
EXTT13=
EXTT14=
EXTT15=
EXTT16=
EXTT17=
EXTT18=
EXTT19=
EXTT20=
EXTT21=
EXTT22=
EXTT23=
EXTT24=
EXTT25=
EXTT26=
EXTT27=
EXTT28=
PLAYORDER=
